<svg xmlns="http://www.w3.org/2000/svg" viewBox="0 0 410 404">
  <path
    fill="#1F6BFF"
    d="M399.641 59.524L215.643 388.545c-3.276 5.857-11.7 5.846-14.959-.019L10.251 59.515C6.624 53.04 12.23 45.186 19.543 46.358l184.735 29.651a8.29 8.29 0 002.62 0l173.69-29.619c7.3-1.245 12.946 6.607 9.053 13.134z"
  />
  <path
    fill="#0F172A"
    d="M292.965.792L156.209 27.56a4.15 4.15 0 00-3.35 3.431l-8.415 57.06a4.15 4.15 0 005.063 4.655l38.076-9.195c3.562-.86 6.782 2.31 5.733 5.822l-11.31 37.764c-1.05 3.507 2.158 6.674 5.713 5.822l23.52-5.667c3.558-.857 6.77 2.318 5.71 5.83l-17.978 59.716c-1.125 3.736 3.847 5.772 5.564 2.278l1.147-2.335 111.47-222.44c1.868-3.725-1.351-7.812-5.452-7.01l-39.217 7.66c-3.684.72-6.814-2.71-5.89-6.347l25.602-101.02c.925-3.65-2.234-7.09-5.91-6.37z"
  />
</svg>
