<svg width="800" height="360" viewBox="0 0 800 360" fill="none" xmlns="http://www.w3.org/2000/svg">
  <rect width="800" height="360" fill="#FFFFFF"/>
  <ellipse cx="398" cy="286" rx="170" ry="18" fill="#D8DEE8"/>
  <circle cx="292" cy="270" r="34" fill="#232833"/>
  <circle cx="292" cy="270" r="15" fill="#A8B4C1"/>
  <circle cx="510" cy="270" r="34" fill="#232833"/>
  <circle cx="510" cy="270" r="15" fill="#A8B4C1"/>
  <path d="M206 233C206 207 227 186 253 184L414 172C454 169 493 183 522 211L565 251H206V233Z" fill="#EEF1F4"/>
  <path d="M255 188C267 178 282 173 298 173H402C427 173 451 181 471 198L515 235H246L255 188Z" fill="#D5DCE5"/>
  <path d="M190 228C190 213 202 201 217 201H251V251H190V228Z" fill="#EEF1F4"/>
  <path d="M553 251H198C187 251 178 260 178 271C178 280 186 288 196 288H554C566 288 576 279 576 267C576 258 566 251 553 251Z" fill="#EEF1F4"/>
  <rect x="307" y="182" width="138" height="40" rx="8" fill="#798392"/>
  <rect x="316" y="190" width="118" height="28" rx="6" fill="#C5D0DB"/>
  <rect x="520" y="237" width="26" height="8" rx="4" fill="#111827"/>
  <rect x="196" y="235" width="22" height="8" rx="4" fill="#E3EAF1"/>
  <path d="M242 252H546" stroke="#B8C2CC" stroke-width="4" stroke-linecap="round"/>
</svg>
