<svg width="800" height="360" viewBox="0 0 800 360" fill="none" xmlns="http://www.w3.org/2000/svg">
  <rect width="800" height="360" fill="#FFFFFF"/>
  <ellipse cx="406" cy="290" rx="184" ry="18" fill="#D8DEE8"/>
  <circle cx="294" cy="273" r="37" fill="#1D2330"/>
  <circle cx="294" cy="273" r="17" fill="#9AA7B8"/>
  <circle cx="528" cy="273" r="37" fill="#1D2330"/>
  <circle cx="528" cy="273" r="17" fill="#9AA7B8"/>
  <path d="M192 241C192 216 210 194 235 189L408 168C468 161 527 182 569 223L614 257H192V241Z" fill="#EFF2F5"/>
  <path d="M258 192C276 178 299 170 323 170H421C458 170 494 184 522 210L563 247H244L258 192Z" fill="#D0D8E2"/>
  <path d="M181 235C181 219 194 206 210 206H247L240 257H181V235Z" fill="#EFF2F5"/>
  <path d="M600 257H196C186 257 178 265 178 275V278C178 288 186 296 196 296H600C611 296 620 287 620 276V275C620 265 611 257 600 257Z" fill="#EFF2F5"/>
  <path d="M332 182H425C461 182 496 195 522 220L548 244H318L332 182Z" fill="#788391"/>
  <path d="M343 191H419C447 191 474 201 494 220L515 239H331L343 191Z" fill="#F6F8FB"/>
  <rect x="560" y="241" width="31" height="9" rx="4.5" fill="#111827"/>
  <rect x="199" y="240" width="25" height="9" rx="4.5" fill="#E6EDF4"/>
  <path d="M240 257H587" stroke="#B8C2CC" stroke-width="4" stroke-linecap="round"/>
</svg>
