<svg width="800" height="360" viewBox="0 0 800 360" fill="none" xmlns="http://www.w3.org/2000/svg">
  <rect width="800" height="360" fill="#FFFFFF"/>
  <ellipse cx="400" cy="286" rx="174" ry="18" fill="#D8DEE8"/>
  <circle cx="295" cy="270" r="35" fill="#1E2431"/>
  <circle cx="295" cy="270" r="16" fill="#9AA7B8"/>
  <circle cx="511" cy="270" r="35" fill="#1E2431"/>
  <circle cx="511" cy="270" r="16" fill="#9AA7B8"/>
  <path d="M201 236C201 211 220 189 245 185L400 166C446 160 494 174 529 205L579 247H201V236Z" fill="#E9EDF2"/>
  <path d="M258 189C274 176 295 169 317 169H403C436 169 468 182 494 205L529 236H245L258 189Z" fill="#CDD6E0"/>
  <path d="M187 230C187 214 200 201 216 201H252L246 247H187V230Z" fill="#E9EDF2"/>
  <path d="M567 247H196C186 247 178 255 178 265V269C178 279 186 287 196 287H567C578 287 587 278 587 267V265C587 255 578 247 567 247Z" fill="#E9EDF2"/>
  <path d="M319 178H399C427 178 454 188 476 208L503 230H306L319 178Z" fill="#798493"/>
  <path d="M329 186H394C416 186 438 194 454 210L473 226H316L329 186Z" fill="#F6F8FB"/>
  <rect x="532" y="233" width="29" height="8" rx="4" fill="#111827"/>
  <rect x="197" y="233" width="24" height="8" rx="4" fill="#F4F7FA"/>
  <path d="M238 247H556" stroke="#B1BBC8" stroke-width="4" stroke-linecap="round"/>
</svg>
