<svg width="64" height="64" viewBox="0 0 64 64" fill="none" xmlns="http://www.w3.org/2000/svg">
  <rect x="3" y="3" width="58" height="58" rx="18" fill="#060606"/>
  <rect x="3" y="3" width="58" height="58" rx="18" stroke="#D8A637" stroke-width="3"/>
  <path d="M18 40.5C18 36.3579 21.3579 33 25.5 33H38.5C42.6421 33 46 36.3579 46 40.5V42H18V40.5Z" fill="#D8A637"/>
  <path d="M24.1689 27.0109C24.563 25.8209 25.676 25 26.9298 25H37.0702C38.324 25 39.437 25.8209 39.8311 27.0109L41.814 33H22.186L24.1689 27.0109Z" fill="#FFE7A3"/>
  <path d="M20 42H44" stroke="#FFE7A3" stroke-width="2.4" stroke-linecap="round"/>
  <circle cx="24" cy="43" r="3.8" fill="#060606" stroke="#FFE7A3" stroke-width="2"/>
  <circle cx="40" cy="43" r="3.8" fill="#060606" stroke="#FFE7A3" stroke-width="2"/>
  <path d="M20 21.5C25.8 17.1 38.2 17.1 44 21.5" stroke="#D8A637" stroke-width="3" stroke-linecap="round"/>
  <path d="M29 16H35" stroke="#FFE7A3" stroke-width="3" stroke-linecap="round"/>
</svg>
